<?xml version="1.0" encoding="utf-8"?>
<!-- Generator: Adobe Illustrator 24.0.0, SVG Export Plug-In . SVG Version: 6.00 Build 0)  -->
<svg version="1.1" id="Layer_1" xmlns="http://www.w3.org/2000/svg" xmlns:xlink="http://www.w3.org/1999/xlink" x="0px" y="0px"
	 viewBox="0 0 60 60" style="enable-background:new 0 0 60 60;" xml:space="preserve">
<style type="text/css">
	.st0{fill:#99C93E;}
	.st1{fill:#131F35;}
	.st2{fill:none;}
</style>
<path class="st0" d="M11.67,25.86c-3.26,0-5.91,2.65-5.91,5.91s2.65,5.91,5.91,5.91c1.78,0,3.37-0.79,4.45-2.03V27.9
	C15.04,26.65,13.45,25.86,11.67,25.86z M11.67,34.34c-1.42,0-2.56-1.15-2.56-2.56c0-1.42,1.15-2.56,2.56-2.56
	c1.42,0,2.56,1.15,2.56,2.56C14.24,33.19,13.09,34.34,11.67,34.34z"/>
<path class="st1" d="M11.67,35.12c-1.85,0-3.35-1.5-3.35-3.35s1.5-3.35,3.35-3.35c1.85,0,3.35,1.5,3.35,3.35
	S13.52,35.12,11.67,35.12z M11.67,29.99c-0.98,0-1.78,0.8-1.78,1.78s0.8,1.78,1.78,1.78c0.98,0,1.78-0.8,1.78-1.78
	S12.65,29.99,11.67,29.99z"/>
<path class="st2" d="M11.67,29.21c-1.42,0-2.56,1.15-2.56,2.56c0,1.42,1.15,2.56,2.56,2.56c1.42,0,2.56-1.15,2.56-2.56
	C14.24,30.36,13.09,29.21,11.67,29.21z"/>
<path class="st1" d="M11.67,38.21c-3.55,0-6.43-2.88-6.43-6.43c0-3.55,2.88-6.43,6.43-6.43c1.73,0,3.3,0.69,4.45,1.8v-0.7
	c-1.21-1.01-2.76-1.62-4.45-1.62c-3.84,0-6.96,3.12-6.96,6.96s3.12,6.96,6.96,6.96c1.69,0,3.24-0.61,4.45-1.62v-0.7
	C14.97,37.52,13.4,38.21,11.67,38.21z"/>
<path class="st1" d="M5.24,31.77c0,3.55,2.88,6.43,6.43,6.43c1.73,0,3.3-0.69,4.45-1.8v-0.76c-1.08,1.24-2.68,2.03-4.45,2.03
	c-3.26,0-5.91-2.65-5.91-5.91s2.65-5.91,5.91-5.91c1.78,0,3.37,0.79,4.45,2.03v-0.76c-1.16-1.11-2.72-1.8-4.45-1.8
	C8.12,25.34,5.24,28.22,5.24,31.77z"/>
<path class="st0" d="M32.49,11.18c-5.04,0-9.15,4.1-9.15,9.15s4.1,9.15,9.15,9.15c5.04,0,9.15-4.1,9.15-9.15
	S37.53,11.18,32.49,11.18z M32.49,24.19c-2.13,0-3.86-1.73-3.86-3.86s1.73-3.86,3.86-3.86s3.86,1.73,3.86,3.86
	S34.61,24.19,32.49,24.19z"/>
<path class="st1" d="M11.67,50.54c-2.45,0-4.45-2-4.45-4.45c0-2.45,2-4.45,4.45-4.45s4.45,2,4.45,4.45
	C16.12,48.55,14.13,50.54,11.67,50.54z M11.67,42.88c-1.77,0-3.21,1.44-3.21,3.21c0,1.77,1.44,3.21,3.21,3.21s3.21-1.44,3.21-3.21
	C14.88,44.32,13.44,42.88,11.67,42.88z"/>
<circle class="st1" cx="3.28" cy="24.61" r="0.51"/>
<circle class="st1" cx="3.28" cy="52.03" r="0.51"/>
<path class="st0" d="M54.95,55.05h-6.26V5.38h6.45c2.25,0,4.07,1.82,4.07,4.07v41.33C59.21,53.14,57.3,55.05,54.95,55.05z"/>
<path class="st2" d="M1.57,24.88v26.65c0,1.22,0.99,2.2,2.2,2.2h14.31c-1.18-0.81-1.96-2.17-1.96-3.71V22.68H3.77
	C2.56,22.68,1.57,23.67,1.57,24.88z"/>
<path class="st1" d="M32.49,49.94c-4.46,0-8.08-3.63-8.08-8.08s3.63-8.08,8.08-8.08s8.08,3.63,8.08,8.08S36.94,49.94,32.49,49.94z
	 M32.49,35.34c-3.59,0-6.51,2.92-6.51,6.51c0,3.59,2.92,6.51,6.51,6.51c3.59,0,6.51-2.92,6.51-6.51
	C39,38.26,36.08,35.34,32.49,35.34z"/>
<path class="st1" d="M32.49,10.14c-5.62,0-10.19,4.57-10.19,10.19c0,5.62,4.57,10.19,10.19,10.19c5.62,0,10.19-4.57,10.19-10.19
	C42.68,14.71,38.11,10.14,32.49,10.14z M32.49,30c-5.34,0-9.67-4.33-9.67-9.67s4.33-9.67,9.67-9.67s9.67,4.33,9.67,9.67
	S37.83,30,32.49,30z"/>
<path class="st1" d="M32.49,10.66c-5.34,0-9.67,4.33-9.67,9.67S27.15,30,32.49,30s9.67-4.33,9.67-9.67S37.83,10.66,32.49,10.66z
	 M32.49,29.48c-5.04,0-9.15-4.1-9.15-9.15s4.1-9.15,9.15-9.15c5.04,0,9.15,4.1,9.15,9.15S37.53,29.48,32.49,29.48z"/>
<path class="st1" d="M32.49,24.97c-2.56,0-4.64-2.08-4.64-4.64s2.08-4.64,4.64-4.64c2.56,0,4.64,2.08,4.64,4.64
	S35.04,24.97,32.49,24.97z M32.49,17.26c-1.69,0-3.07,1.38-3.07,3.07s1.38,3.07,3.07,3.07c1.69,0,3.07-1.38,3.07-3.07
	S34.18,17.26,32.49,17.26z"/>
<circle class="st1" cx="19.88" cy="9.57" r="0.77"/>
<circle class="st1" cx="45.35" cy="9.57" r="0.77"/>
<circle class="st1" cx="19.88" cy="50.78" r="0.77"/>
<circle class="st1" cx="45.35" cy="50.78" r="0.77"/>
<path class="st1" d="M59.21,25c-0.43,0-0.79,0.35-0.79,0.79v24.85c0,1.71-1.39,3.1-3.1,3.1h-6.84c0.94-0.95,1.53-2.26,1.53-3.71
	v-6.84c0-0.43-0.35-0.79-0.79-0.79s-0.79,0.35-0.79,0.79v6.84c0,2.04-1.66,3.71-3.71,3.71h-5.48H20.62c-2.04,0-3.71-1.66-3.71-3.71
	V9.97c0-2.04,1.66-3.71,3.71-3.71h24.13c2.04,0,3.71,1.66,3.71,3.71v24.58c0,0.43,0.35,0.79,0.79,0.79s0.79-0.35,0.79-0.79V9.97
	c0-2.91-2.37-5.28-5.28-5.28H20.62c-2.91,0-5.28,2.37-5.28,5.28v11.14H3.77C1.69,21.11,0,22.8,0,24.88v26.65
	c0,2.08,1.69,3.77,3.77,3.77h16.05c0.15,0,0.28-0.02,0.43-0.04c0.12,0.01,0.24,0.04,0.36,0.04h18.64h5.48h10.59
	c2.57,0,4.67-2.09,4.67-4.67V25.78C60,25.35,59.65,25,59.21,25z M1.57,51.53V24.88c0-1.22,0.99-2.2,2.2-2.2h11.56v27.35
	c0,1.44,0.59,2.75,1.53,3.71H3.77C2.56,53.73,1.57,52.75,1.57,51.53z"/>
<path class="st1" d="M59.21,16.42c-0.43,0-0.79-0.35-0.79-0.79V9.36c0-1.71-1.39-3.1-3.1-3.1H39.26c-0.43,0-0.79-0.35-0.79-0.79
	c0-0.43,0.35-0.79,0.79-0.79h16.07C57.91,4.7,60,6.79,60,9.36v6.27C60,16.07,59.65,16.42,59.21,16.42z"/>
</svg>
